<svg xmlns="http://www.w3.org/2000/svg" width="36" height="36" fill="none">
  <path fill="#000" d="M18.122.12c.09.242.271 1.409.271 1.77a3.47 3.47 0 0 1-.941 2.388c-.505.542-1.01.843-2.222 1.333-1.348.55-1.906.881-2.538 1.506-.64.64-1.017 1.34-1.152 2.162-.151.896 0 1.528.459 1.89l.233.18-.369.234c-.745.49-2.1 1.642-2.334 1.996-.452.678-.407 1.31.105 1.567l.241.12-.271.256c-.407.384-.49.648-.43 1.34.038.46.023.709-.082 1.085-.128.49-.128.497.037.844.166.339.633.768 1.055.949.203.09.21.12.256.813.023.4.06 1.672.09 2.832.023 1.16.076 2.222.12 2.35.038.135.181.316.31.406.436.302.738.626.933 1.002.219.43.46 1.484 1.19 5.129l.512 2.56.317.302c.602.595 1.755.866 3.653.866 1.905 0 3.042-.264 3.645-.859l.324-.308L22 32.46c1.031-5.189 1.122-5.475 1.928-6.115.248-.204.49-.452.534-.565.053-.128.106-1.115.143-2.606.03-1.325.076-2.636.106-2.915l.045-.504.49-.37c.617-.474.858-.903.858-1.566-.007-.783-.52-1.642-1.453-2.41l-.445-.361.219-.31c.911-1.257.339-2.997-1.356-4.156l-.512-.354.188-.196c.836-.896.972-3.57.271-5.43-.421-1.107-1.386-2.312-2.568-3.201C19.87.964 18.272 0 18.13 0c-.03 0-.03.053-.007.12ZM20.29 2.75c.4.392.881.926 1.07 1.197 1.122 1.567 1.408 3.533.73 4.979-.271.587-1.085 1.46-1.838 1.98-1.152.799-3.743 2.14-5.55 2.877-2.907 1.183-4.595 1.409-4.79.633-.076-.294.143-.527 1.07-1.145.835-.572 4.586-3.359 4.653-3.472.023-.03-.361.143-.843.384-1.634.829-2.41.67-2.372-.482.022-.836.625-1.785 1.46-2.327.212-.135.867-.437 1.47-.678 1.98-.798 2.583-1.205 3.253-2.206.4-.595.836-1.695.866-2.162.008-.165.038-.294.06-.294.023 0 .362.324.76.716Zm2.056 8.556c.55.308 1.122.836 1.37 1.25.438.745.212 1.491-.73 2.44-1.024 1.04-2.771 2.034-4.692 2.666-1.77.58-3.464.851-5.89.934l-1.506.053.98.06c1.265.083 3.712.008 4.661-.143 2.523-.4 4.67-1.198 6.206-2.297.347-.249.708-.452.806-.452.249 0 1.333 1.04 1.552 1.476.12.249.15.43.128.67-.113 1.002-1.334 1.537-4.278 1.89-3.6.43-8.307.008-10.318-.918-.95-.437-1.107-.686-.866-1.348.075-.211.09-.46.06-.814-.038-.467-.03-.527.135-.7.377-.407 1.01-.64 3.33-1.228.813-.21 1.92-.542 2.447-.738 1.28-.467 3.683-1.68 4.797-2.425 1.047-.693 1.198-.723 1.808-.376Zm-10.002 9.218c1.582.46 2.983.595 5.589.542 1.958-.037 3.163-.158 4.902-.467.355-.06.663-.113.701-.113.083 0 .06 2.892-.03 3.653-.098.806-.317 1.431-.55 1.582-.241.158-1.446.324-3.058.414-3.306.18-6.703 0-7.757-.422-.572-.233-.633-.535-.64-3.329 0-1.86.015-2.116.113-2.078.06.022.391.12.73.218Zm1.785 6.402c.542.067 1.13.135 1.31.158l.325.038-.287.316c-.369.399-.934 1.197-1.137 1.604-.233.467-.309.497-.655.309l-.294-.166-.165-1.024a28.822 28.822 0 0 0-.211-1.183c-.068-.195-.136-.195 1.114-.052Zm8.029-.083c0 .015-.038.21-.076.43-.045.225-.233 1.453-.421 2.733-.384 2.674-.64 3.931-.874 4.353-.324.565-1.1.896-2.357 1.002-.49.038-1.966-.06-2.049-.136-.06-.067 1.235-1.672 1.439-1.777.188-.106.24-.09.88.24.746.393 1.123.453 1.123.204 0-.248-.196-.49-.678-.82-.444-.317-.602-.498-.602-.709 0-.06.218-.399.482-.753.263-.354.647-.919.843-1.258l.37-.61.338.046c.685.098.866.09.844-.06-.015-.076-.143-.294-.287-.475-.143-.188-.256-.377-.256-.414 0-.143.7-1.461.927-1.74.196-.241.354-.362.354-.256Zm-4.707.602c.376.249 1.792 1.477 1.882 1.627.038.068-1.415 2.342-1.702 2.666-.03.038-.188-.037-.346-.158a24.697 24.697 0 0 0-1.31-.904l-1.017-.67.61-1.032c1.084-1.815 1.062-1.785 1.295-1.785.12 0 .384.113.588.256Zm2.854.271c-.264.324-.482.528-.572.528-.196 0-.513-.173-1.047-.565l-.445-.324.89-.053a17.57 17.57 0 0 0 1.03-.067c.603-.098.603-.09.144.481Zm-5.694 3.623c.693.271 1.868.911 2.207 1.198.241.195.241.21.143.451a7.58 7.58 0 0 1-.467.806 13.73 13.73 0 0 0-.505.836c-.24.467-.316.505-.813.37-.535-.159-.82-.43-.971-.92-.204-.685-.528-2.62-.49-2.922.015-.113.331-.045.896.181Z"/>
</svg>
